<svg xmlns="http://www.w3.org/2000/svg" width="89.132" height="118.43" viewBox="0 0 89.132 118.43"><g transform="translate(-1644 -481.713)"><g transform="translate(4679.196 9136.726)"><path d="M-2981.08-8574.62c.124.394,0,28.157,0,28.157l2.721,2.361H-2988l.247-31.567Z" fill="#4f86d9"/></g><g transform="translate(4679.196 9136.726)"><path d="M-3001.86-8574.62c-.124.394,0,28.157,0,28.157l-2.721,2.361h9.646l-.247-31.567Z" fill="#4f86d9"/></g><g transform="translate(4679.196 9136.726)"><rect width="82.453" height="82.453" rx="6.465" transform="translate(-3035.196 -8648.004) rotate(-4.878)" fill="#c7d7f0"/></g><g transform="translate(4679.196 9136.726)"><circle cx="6.431" cy="6.431" r="6.431" transform="translate(-3002.397 -8624.255)" fill="#4f86d9"/></g><g transform="translate(4679.196 9136.726)"><circle cx="6.431" cy="6.431" r="6.431" transform="translate(-2975.024 -8624.255)" fill="#4f86d9"/></g><g transform="translate(4679.196 9136.726)"><path d="M-2982.15-8601.66a8.781,8.781,0,0,1-7.754-4.639,2,2,0,0,1,.822-2.705,2,2,0,0,1,2.705.822,4.736,4.736,0,0,0,2.823,2.318,4.737,4.737,0,0,0,3.638-.355,2,2,0,0,1,2.705.821,2,2,0,0,1-.822,2.705A8.7,8.7,0,0,1-2982.15-8601.66Z" fill="#4f86d9"/></g><g transform="translate(4679.196 9136.726)" opacity="0.1"><ellipse cx="29.428" cy="7.836" rx="29.428" ry="7.836" transform="translate(-3020.046 -8552.255)" fill="#4f86d9"/></g></g></svg>