<svg xmlns="http://www.w3.org/2000/svg" width="227.118" height="47.724" viewBox="0 0 227.118 47.724"><g transform="translate(0)"><path d="M125.044,107.926a13.823,13.823,0,0,1,10.226,4.088,15.078,15.078,0,0,1-.024,20.629,13.8,13.8,0,0,1-10.2,4.116,13.057,13.057,0,0,1-7.523-2.272v11.325h-7.37v-37.13h4.9l1.261,2.473a12.7,12.7,0,0,1,8.736-3.23Zm-5.933,19.763a7.149,7.149,0,0,0,5.3,2.123,7.25,7.25,0,0,0,7.447-7.475,7.725,7.725,0,0,0-.959-3.838,6.875,6.875,0,0,0-2.65-2.674,7.6,7.6,0,0,0-3.814-.963,7.725,7.725,0,0,0-3.838.963,6.641,6.641,0,0,0-2.65,2.674,7.882,7.882,0,0,0-.934,3.838A7.3,7.3,0,0,0,119.111,127.689Z" transform="translate(-110.15 -98.836)" fill="#1b1d27"/><path d="M206.031,136.711a15.373,15.373,0,0,1-7.576-1.869,13.416,13.416,0,0,1-5.264-5.175,14.5,14.5,0,0,1-1.893-7.346,13.8,13.8,0,0,1,4.189-10.3,15.606,15.606,0,0,1,21.06,0,14.7,14.7,0,0,1-.028,20.581A14.406,14.406,0,0,1,206.031,136.711Zm0-6.915a6.9,6.9,0,0,0,5.2-2.1,8.185,8.185,0,0,0,0-10.754,7.556,7.556,0,0,0-10.452,0,7.438,7.438,0,0,0-2.014,5.377,8.522,8.522,0,0,0,.532,3.029,6.581,6.581,0,0,0,1.49,2.376,7.081,7.081,0,0,0,2.3,1.514A7.652,7.652,0,0,0,206.031,129.8Z" transform="translate(-158.615 -98.84)" fill="#1b1d27"/><path d="M277.53,122.474V85.36h7.37v37.114Z" transform="translate(-210.117 -85.36)" fill="#1b1d27"/><path d="M327.421,109.81H335.3l-11.918,26.916q-2.525,5.639-5.151,7.926a10.46,10.46,0,0,1-7.117,2.288h-3.033v-6.682h2.578a5.729,5.729,0,0,0,3.738-.959,11.751,11.751,0,0,0,2.417-4.092l.1-.2-11.563-25.2h8.035l7.27,16.763Z" transform="translate(-226.732 -99.963)" fill="#1b1d27"/><path d="M405.759,108.687h4.8v24.085a15.14,15.14,0,0,1-1.692,7.35,11.571,11.571,0,0,1-4.833,4.773,15.627,15.627,0,0,1-7.423,1.663,15.419,15.419,0,0,1-9.263-2.674,11.378,11.378,0,0,1-4.6-7.33h7.31a4.9,4.9,0,0,0,2.417,2.7,8.236,8.236,0,0,0,3.987.983,7.02,7.02,0,0,0,4.873-1.744,5.952,5.952,0,0,0,1.945-4.668v-1.011a13.021,13.021,0,0,1-7.777,2.417,13.557,13.557,0,0,1-6.867-1.792,12.844,12.844,0,0,1-4.9-4.926,13.806,13.806,0,0,1-1.736-6.9,13.335,13.335,0,0,1,3.915-9.7,13.6,13.6,0,0,1,18.708-.5Zm-9.384,20a6.734,6.734,0,0,0,5-2.014,7.5,7.5,0,0,0,.024-10.1,7.25,7.25,0,0,0-9.972,0,6.847,6.847,0,0,0-1.969,5.026,6.976,6.976,0,0,0,1.941,5.075A6.649,6.649,0,0,0,396.375,128.684Z" transform="translate(-272.507 -98.84)" fill="#1b1d27"/><path d="M480.843,136.711a15.373,15.373,0,0,1-7.576-1.869,13.416,13.416,0,0,1-5.276-5.175,14.528,14.528,0,0,1-1.893-7.346,13.8,13.8,0,0,1,4.189-10.3,15.606,15.606,0,0,1,21.06,0,14.7,14.7,0,0,1-.028,20.581A14.391,14.391,0,0,1,480.843,136.711Zm0-6.915a6.9,6.9,0,0,0,5.2-2.1,8.185,8.185,0,0,0,0-10.754,7.556,7.556,0,0,0-10.452,0,7.435,7.435,0,0,0-2.014,5.377,8.522,8.522,0,0,0,.532,3.029,6.581,6.581,0,0,0,1.49,2.376,7.08,7.08,0,0,0,2.3,1.514A7.652,7.652,0,0,0,480.843,129.8Z" transform="translate(-322.738 -98.84)" fill="#1b1d27"/><path d="M567.922,108.18a9.237,9.237,0,0,1,7.346,3.105,12.205,12.205,0,0,1,2.7,8.3V136.1h-7.383V120.754q0-6.11-4.744-6.11a6.069,6.069,0,0,0-3.258.858,5.477,5.477,0,0,0-2.123,2.473,9.129,9.129,0,0,0-.729,3.79V136.1H552.36V108.836h5.051l1.462,3.383a9.264,9.264,0,0,1,1.744-1.692,11.8,11.8,0,0,1,2.147-1.265,12.118,12.118,0,0,1,2.449-.806,12.783,12.783,0,0,1,2.711-.278Z" transform="translate(-374.257 -98.989)" fill="#1b1d27"/></g><rect width="14.048" height="14.048" rx="4.84" transform="translate(213.07 23.138)" fill="#4f86d9"/></svg>