<svg xmlns="http://www.w3.org/2000/svg" width="573.328" height="126.914" viewBox="0 0 573.328 126.914"><g transform="translate(-669.734 -2121.389)"><g transform="translate(546 1923)"><g transform="translate(3316.196 9018.726)"><path d="M-3134.1-8731.46c.124.394,0,28.158,0,28.158l2.721,2.359h-9.646l.247-31.566Z" fill="#4f86d9"/></g><g transform="translate(3316.196 9018.726)"><path d="M-3154.89-8731.46c-.123.394,0,28.158,0,28.158l-2.72,2.359h9.646l-.248-31.566Z" fill="#4f86d9"/></g><g transform="translate(3316.196 9018.726)" opacity="0.1"><ellipse cx="29.428" cy="7.836" rx="29.428" ry="7.836" transform="translate(-3173.073 -8709.095)" fill="#4f86d9"/></g><g transform="translate(3316.196 9018.726)"><path d="M-3148.06-8816.16l-42.887,34.008a4,4,0,0,0-1.263,4.53l19.091,51.3a4,4,0,0,0,3.917,2.6l54.686-2.3a4,4,0,0,0,3.684-2.922l14.71-52.728a4,4,0,0,0-1.64-4.406l-45.6-30.28A4,4,0,0,0-3148.06-8816.16Z" fill="#93b4e6"/></g><g transform="translate(3316.196 9018.726)"><circle cx="6.431" cy="6.431" r="6.431" transform="translate(-3158.94 -8771.261)" fill="#4f86d9"/></g><g transform="translate(3316.196 9018.726)"><circle cx="6.431" cy="6.431" r="6.431" transform="translate(-3131.567 -8771.261)" fill="#4f86d9"/></g><g transform="translate(3316.196 9018.726)"><path d="M-3138.69-8749.2a8.781,8.781,0,0,1-2.665-.414,8.712,8.712,0,0,1-5.134-4.327,2,2,0,0,1,.855-2.693,2,2,0,0,1,1.527-.134,2,2,0,0,1,1.173.987,4.732,4.732,0,0,0,2.794,2.354,4.743,4.743,0,0,0,3.641-.312,2,2,0,0,1,2.694.856,2,2,0,0,1-.854,2.7,8.735,8.735,0,0,1-4.03.988Z" fill="#4f86d9"/></g></g><g transform="translate(3862.196 10941.726)"><path d="M-2652.55-8735.85c.123.393,0,28.156,0,28.156l2.72,2.361h-9.646l.248-31.567Z" fill="#4f86d9"/><path d="M-2673.33-8735.85c-.124.393,0,28.156,0,28.156l-2.721,2.361h9.646l-.247-31.567Z" fill="#4f86d9"/><rect width="82.484" height="82.484" rx="6.467" transform="translate(-2705 -8811.135) rotate(-2.407)" fill="#c7d7f0"/><circle cx="6.431" cy="6.431" r="6.431" transform="translate(-2688.808 -8778.32)" fill="#4f86d9"/><circle cx="6.431" cy="6.431" r="6.431" transform="translate(-2661.435 -8778.32)" fill="#4f86d9"/><path d="M-2668.06-8756.44a8.747,8.747,0,0,1-3.35-.669,2,2,0,0,1-1.084-2.61,2,2,0,0,1,2.61-1.084,4.752,4.752,0,0,0,3.655,0,4.736,4.736,0,0,0,2.581-2.586,2,2,0,0,1,2.611-1.086,2,2,0,0,1,1.084,2.61,8.712,8.712,0,0,1-4.743,4.754,8.727,8.727,0,0,1-3.365.672Z" fill="#4f86d9"/><g opacity="0.1"><ellipse cx="29.428" cy="7.836" rx="29.428" ry="7.836" transform="translate(-2691.518 -8713.487)" fill="#4f86d9"/></g></g><g transform="translate(546 1923)"><g transform="translate(3316.196 9018.726)" opacity="0.1"><ellipse cx="29.428" cy="7.836" rx="29.428" ry="7.836" transform="translate(-2853.197 -8720.602)" fill="#4f86d9"/></g><g transform="translate(3316.196 9018.726)"><path d="M-2813.62-8739.42c.124.394,0,24.383,0,24.383l2.721,2.541-9.646-.181.247-26.5Z" fill="#3c3d49"/></g><g transform="translate(3316.196 9018.726)"><path d="M-2834.4-8739.42c-.123.394,0,24.383,0,24.383l-2.72,2.541,9.646-.181-.248-26.5Z" fill="#3c3d49"/></g><g transform="translate(3316.196 9018.726)"><path d="M-2829.06-8817.31a6.046,6.046,0,0,1,8.259-2.218,6.045,6.045,0,0,1,2.218,2.219l20.5,35.5,20.5,35.5a6.048,6.048,0,0,1-2.212,8.262,6.033,6.033,0,0,1-3.027.809h-82a6.047,6.047,0,0,1-6.047-6.048,6.048,6.048,0,0,1,.809-3.022l20.5-35.5Z" fill="#719de0"/></g><g transform="translate(3316.196 9018.726)"><circle cx="6.431" cy="6.431" r="6.431" transform="translate(-2838.272 -8775.636)" fill="#3c3d49"/><circle cx="6.431" cy="6.431" r="6.431" transform="translate(-2814.132 -8775.636)" fill="#3c3d49"/></g><g transform="translate(3316.196 9018.726)"><path d="M-2820.24-8753.69a8.782,8.782,0,0,1-7.8-4.729,2,2,0,0,1-.133-1.526,2,2,0,0,1,.986-1.173,2,2,0,0,1,1.527-.134,2,2,0,0,1,1.173.987,4.783,4.783,0,0,0,6.44,2.039,2,2,0,0,1,2.694.853,2,2,0,0,1,.133,1.527,2,2,0,0,1-.987,1.174A8.717,8.717,0,0,1-2820.24-8753.69Z" fill="#3c3d49"/></g></g><g transform="translate(546 1923)"><g transform="translate(3316.196 9018.726)" opacity="0.1"><ellipse cx="29.428" cy="7.836" rx="29.428" ry="7.836" transform="translate(-3003.182 -8714.208)" fill="#4f86d9"/></g><g transform="translate(3316.196 9018.726)"><path d="M-2963.6-8733.03c.123.394,0,24.383,0,24.383l2.72,2.541-9.646-.181.248-26.5Z" fill="#3c3d49"/></g><g transform="translate(3316.196 9018.726)"><path d="M-2984.38-8733.03c-.124.394,0,24.383,0,24.383l-2.721,2.541,9.646-.181-.247-26.5Z" fill="#3c3d49"/></g><g transform="translate(3316.196 9018.726)"><path d="M-2977.48-8811.09a6.049,6.049,0,0,1,8.346-1.878,6.045,6.045,0,0,1,2.123,2.3l19.045,36.3,19.049,36.307a6.048,6.048,0,0,1-2.544,8.165,6.075,6.075,0,0,1-3.056.687l-81.932-3.322a6.047,6.047,0,0,1-4.2-1.941,6.048,6.048,0,0,1-1.6-4.347,6.057,6.057,0,0,1,.931-2.987l21.918-34.646Z" fill="#719de0"/></g><g transform="translate(3316.196 9018.726)"><circle cx="6.431" cy="6.431" r="6.431" transform="translate(-2996.381 -8767.034)" fill="#3c3d49"/></g><g transform="translate(3316.196 9018.726)"><path d="M-2971.26-8750.78a6.431,6.431,0,0,1-6.431,6.432,6.43,6.43,0,0,1-6.43-6.431h0c0-3.552,2.879-1.58,6.43-1.58S-2971.26-8754.33-2971.26-8750.78Z" fill="#3c3d49"/></g><g transform="translate(3316.196 9018.726)"><circle cx="6.431" cy="6.431" r="6.431" transform="translate(-2972.242 -8767.034)" fill="#3c3d49"/></g></g></g></svg>