<svg xmlns="http://www.w3.org/2000/svg" width="450.823" height="335.1" viewBox="0 0 450.823 335.1"><g transform="translate(-1154.999 -2689)"><g transform="translate(1337.652 2689)"><g transform="translate(10.937 66.139)"><path d="M3706.53-890.4c-1.9-1.353,13.643-55.631,15.352-57,1.638-1.314,49.144-2.67,50.382-1.449,1.674,1.652,21.567,56.177,19.423,57.7-1.88,1.333-83.136,2.187-85.157.749Z" transform="translate(-3706.369 949.327)" fill="#93b4e6"/></g><path d="M3770.15-909.007c.161.512,0,36.647,0,36.647l3.541,3.072h-12.555l.323-41.085Z" transform="translate(-3704.102 1009.3)" fill="#3c3d49"/><path d="M3739.05-909.007c-.161.512,0,36.647,0,36.647l-3.541,3.072h12.555l-.322-41.085Z" transform="translate(-3700.045 1009.3)" fill="#3c3d49"/><rect width="107.354" height="107.354" rx="10" fill="#719de0"/><path d="M3714.36-954.266c-1.6-.568-1.441-23.794,0-24.372,1.381-.552,70.748-1.4,71.79-.891,1.411.694,1.417,23.613-.39,24.252-1.585.562-69.7,1.616-71.4,1.011Z" transform="translate(-3696.516 1020.271)" fill="#4f86d9"/><circle cx="8.37" cy="8.37" r="8.37" transform="translate(27.494 45.016)" fill="#3c3d49"/><circle cx="8.37" cy="8.37" r="8.37" transform="translate(63.121 45.016)" fill="#3c3d49"/><g transform="translate(44.841 66.372)"><path d="M3755.49-941.271a11.387,11.387,0,0,1-8.075-3.337,2.6,2.6,0,0,1-.763-1.84,2.6,2.6,0,0,1,.763-1.84,2.6,2.6,0,0,1,1.84-.763,2.6,2.6,0,0,1,1.84.763,6.222,6.222,0,0,0,8.789,0,2.6,2.6,0,0,1,1.84-.763,2.6,2.6,0,0,1,1.84.763,2.6,2.6,0,0,1,.763,1.84,2.6,2.6,0,0,1-.763,1.84,11.384,11.384,0,0,1-8.074,3.337Z" transform="translate(-3746.649 949.05)" fill="#3c3d49"/></g></g><g transform="translate(1390.916 2927.822)"><path d="M6356.39-2076.96c.161.512,0,36.648,0,36.648l3.541,3.072h-12.554l.321-41.085Z" transform="translate(-6347.375 2078.323)" fill="#4f86d9"/></g><g transform="translate(1369.343 2927.822)"><path d="M6325.29-2076.96c-.162.512,0,36.648,0,36.648l-3.542,3.072H6334.3l-.323-41.085Z" transform="translate(-6321.744 2078.323)" fill="#4f86d9"/></g><g transform="translate(1333.877 2829.301)"><rect width="107.354" height="107.354" rx="10" fill="#c7d7f0"/></g><g transform="translate(1361.372 2861.047)"><circle cx="8.37" cy="8.37" r="8.37" transform="translate(0 0)" fill="#4f86d9"/><g transform="translate(35.627)"><circle cx="8.37" cy="8.37" r="8.37" transform="translate(0 0)" fill="#4f86d9"/></g><g transform="translate(17.348 21.355)"><path d="M6341.72-2124.5a11.387,11.387,0,0,1-8.074-3.339,2.6,2.6,0,0,1-.763-1.84,2.6,2.6,0,0,1,.763-1.839,2.6,2.6,0,0,1,1.839-.763,2.6,2.6,0,0,1,1.84.763,6.221,6.221,0,0,0,8.788,0,2.6,2.6,0,0,1,1.839-.763,2.6,2.6,0,0,1,1.839.763,2.6,2.6,0,0,1,0,3.679,11.381,11.381,0,0,1-8.072,3.339Z" transform="translate(-6332.884 2132.283)" fill="#4f86d9"/></g></g><g transform="translate(1228.259 2970.001)"><path d="M6163.14-1976.85c.162.512,0,36.647,0,36.647l3.541,3.072h-12.555l.321-41.085Z" transform="translate(-6154.13 1978.212)" fill="#4f86d9"/></g><g transform="translate(1206.687 2970.001)"><path d="M6132.04-1976.85c-.162.512,0,36.647,0,36.647l-3.542,3.072h12.554l-.321-41.085Z" transform="translate(-6128.5 1978.212)" fill="#4f86d9"/></g><g transform="translate(1155 2857.358)"><path d="M6122.52-2110.75l-53.648,46.934a5.209,5.209,0,0,0-1.358,5.971l28.061,65.526a5.205,5.205,0,0,0,5.253,3.138l70.988-6.437a5.208,5.208,0,0,0,4.6-4.032l15.815-69.5a5.21,5.21,0,0,0-2.4-5.63l-61.212-36.521a5.207,5.207,0,0,0-6.1.551Z" transform="translate(-6067.094 2112.038)" fill="#a4c0e9"/></g><g transform="translate(1203.76 2902.74)"><g transform="translate(35.627)"><circle cx="8.37" cy="8.37" r="8.37" transform="translate(0 0)" fill="#4f86d9"/></g><circle cx="8.37" cy="8.37" r="8.37" transform="translate(0 0)" fill="#4f86d9"/><g transform="translate(15.772 18.95)"><path d="M6153.45-2026.87a11.469,11.469,0,0,1-1.65-.12,11.338,11.338,0,0,1-7.514-4.46,2.6,2.6,0,0,1-.493-1.929,2.6,2.6,0,0,1,1.017-1.712,2.6,2.6,0,0,1,1.93-.493,2.6,2.6,0,0,1,1.712,1.017,6.164,6.164,0,0,0,4.089,2.427,6.166,6.166,0,0,0,4.61-1.175,2.6,2.6,0,0,1,1.93-.493,2.6,2.6,0,0,1,1.712,1.017,2.6,2.6,0,0,1,.494,1.929,2.6,2.6,0,0,1-1.017,1.713,11.336,11.336,0,0,1-6.82,2.28Z" transform="translate(-6143.761 2035.608)" fill="#4f86d9"/></g></g><g transform="translate(1338.678 2955.661)" opacity="0.1"><ellipse cx="48.876" cy="13.015" rx="48.876" ry="13.015" transform="translate(0 0)" fill="#4f86d9"/></g><g transform="translate(1175.783 2998.07)" opacity="0.1"><ellipse cx="48.876" cy="13.015" rx="48.876" ry="13.015" transform="translate(0 0)" fill="#4f86d9"/></g><g transform="translate(1498.777 2998.07)" opacity="0.1"><ellipse cx="48.876" cy="13.015" rx="48.876" ry="13.015" transform="translate(0 0)" fill="#4f86d9"/></g><g transform="translate(1551.922 2968.73)"><path d="M6547.67-1978.36c.161.512,0,36.647,0,36.647l3.542,3.072h-12.556l.322-41.085Z" transform="translate(-6538.657 1979.721)" fill="#4f86d9"/></g><g transform="translate(1530.348 2968.73)"><path d="M6516.57-1978.36c-.161.512,0,36.647,0,36.647l-3.542,3.072h12.556l-.322-41.085Z" transform="translate(-6513.026 1979.721)" fill="#4f86d9"/></g><g transform="translate(1483.575 2869.492)"><path d="M6517.93-2094.11a7.871,7.871,0,0,1,10.913-2.193,7.871,7.871,0,0,1,2.695,3.064l23.674,47.821,23.675,47.82a7.872,7.872,0,0,1-3.562,10.546,7.866,7.866,0,0,1-4,.8l-106.5-6.821a7.871,7.871,0,0,1-7.354-8.358,7.862,7.862,0,0,1,1.3-3.86l29.58-44.411Z" transform="translate(-6457.458 2097.622)" fill="#c7d7f0"/></g><g transform="translate(1520.808 2919.155)"><circle cx="8.37" cy="8.37" r="8.37" transform="translate(0 0)" fill="#4f86d9"/><g transform="translate(31.418)"><circle cx="8.37" cy="8.37" r="8.37" transform="translate(0 0)" fill="#4f86d9"/></g></g><g transform="translate(1536.433 2937.169)"><path d="M6527.61-2007.97a11.339,11.339,0,0,1-6.162-1.824,2.6,2.6,0,0,1-1.136-1.639,2.6,2.6,0,0,1,.359-1.961,2.6,2.6,0,0,1,1.638-1.136,2.6,2.6,0,0,1,1.961.358,6.168,6.168,0,0,0,4.68.851,6.184,6.184,0,0,0,3.911-2.709,2.6,2.6,0,0,1,3.6-.779,2.6,2.6,0,0,1,1.137,1.638,2.6,2.6,0,0,1-.358,1.962,11.337,11.337,0,0,1-7.184,4.977,11.492,11.492,0,0,1-2.44.262Z" transform="translate(-6520.256 2017.218)" fill="#4f86d9"/></g></g></svg>