<svg xmlns="http://www.w3.org/2000/svg" xmlns:xlink="http://www.w3.org/1999/xlink" viewBox="0 0 455.82 315.25"><defs><style>.cls-1{fill:none;}.cls-2{isolation:isolate;}.cls-3{clip-path:url(#clip-path);}.cls-4{fill:url(#Áåçûìÿííûé_ãðàäèåíò_266);}.cls-5,.cls-6{fill:#095cc0;}.cls-12,.cls-13,.cls-14,.cls-15,.cls-16,.cls-17,.cls-18,.cls-20,.cls-21,.cls-22,.cls-23,.cls-24,.cls-26,.cls-29,.cls-31,.cls-33,.cls-34,.cls-35,.cls-37,.cls-38,.cls-39,.cls-40,.cls-41,.cls-42,.cls-43,.cls-44,.cls-45,.cls-46,.cls-48,.cls-49,.cls-52,.cls-55,.cls-56,.cls-57,.cls-59,.cls-6,.cls-60,.cls-61,.cls-62,.cls-65,.cls-67,.cls-69,.cls-70,.cls-8{fill-rule:evenodd;}.cls-7,.cls-8{fill:#0970c0;}.cls-9{fill:#09ffff;}.cls-10{fill:#09b9ea;}.cls-11{fill:#92ffff;}.cls-12{fill:url(#Áåçûìÿííûé_ãðàäèåíò_5);}.cls-13{fill:url(#Áåçûìÿííûé_ãðàäèåíò_16);}.cls-14{fill:url(#Áåçûìÿííûé_ãðàäèåíò_10);}.cls-15,.cls-16{fill:#c7acb3;}.cls-15{opacity:0.6;}.cls-15,.cls-16,.cls-25,.cls-41,.cls-60{mix-blend-mode:multiply;}.cls-16,.cls-25{opacity:0.8;}.cls-17{fill:#1f5468;}.cls-18{fill:#6084bf;}.cls-19,.cls-22{fill:#00071f;}.cls-20{fill:#2a3064;}.cls-21{fill:#335492;}.cls-23{fill:#4870a4;}.cls-24{fill:#17558b;}.cls-26,.cls-41{fill:#1f0042;}.cls-27,.cls-28,.cls-32,.cls-42,.cls-59,.cls-65,.cls-66{mix-blend-mode:screen;}.cls-27{fill:url(#Áåçûìÿííûé_ãðàäèåíò_550);}.cls-28{fill:url(#Áåçûìÿííûé_ãðàäèåíò_558);}.cls-29{fill:#fff;}.cls-30,.cls-42,.cls-59,.cls-60,.cls-65{opacity:0.2;}.cls-31{fill:#635eb0;}.cls-32{fill:url(#Áåçûìÿííûé_ãðàäèåíò_275);}.cls-33{fill:#1e3777;}.cls-34{fill:#4568ac;}.cls-35{fill:#142341;}.cls-36{fill:#031333;}.cls-37{fill:#070b27;}.cls-38,.cls-53{fill:#6884c8;}.cls-39{fill:#1a2b68;}.cls-40,.cls-54{fill:#15314c;}.cls-41{opacity:0.7;}.cls-42{fill:#3e5c7f;}.cls-43,.cls-47{fill:#0f0c28;}.cls-44{fill:#10132d;}.cls-45{fill:#29386d;}.cls-46{fill:#0d1430;}.cls-48{fill:#5770b1;}.cls-49,.cls-50{fill:#0f072b;}.cls-51{fill:#305783;}.cls-52{fill:#241742;}.cls-55{fill:#fbd681;}.cls-56,.cls-58{fill:#ff6e5b;}.cls-57{fill:#d15c54;}.cls-59{fill:#2e2d5e;}.cls-60{fill:#735a77;}.cls-61{fill:#1a203b;}.cls-62{fill:#4763a9;}.cls-63{fill:#294390;}.cls-64,.cls-67{fill:#0d1431;}.cls-65{fill:#34225e;}.cls-66{fill:url(#Áåçûìÿííûé_ãðàäèåíò_23);}.cls-68{fill:#2e2752;}.cls-69{fill:#94b8db;}.cls-70{fill:#172e69;}</style><clipPath id="clip-path"><rect class="cls-1" x="-321.51" y="-58.9" width="1500" height="400"/></clipPath><linearGradient id="Áåçûìÿííûé_ãðàäèåíò_266" x1="428.49" y1="283.87" x2="428.49" y2="-58.9" gradientUnits="userSpaceOnUse"><stop offset="0" stop-color="#8de6ff"/><stop offset="0.14" stop-color="#7bcff0"/><stop offset="0.42" stop-color="#4c94c9"/><stop offset="0.6" stop-color="#2c6cae"/><stop offset="0.82" stop-color="#2d347d"/><stop offset="1" stop-color="#2e0452"/></linearGradient><linearGradient id="Áåçûìÿííûé_ãðàäèåíò_5" x1="52.29" y1="311.56" x2="52.29" y2="96.34" gradientUnits="userSpaceOnUse"><stop offset="0" stop-color="#57abe9"/><stop offset="0.2" stop-color="#57a7e6"/><stop offset="0.4" stop-color="#559bde"/><stop offset="0.61" stop-color="#5387d0"/><stop offset="0.81" stop-color="#4f6bbc"/><stop offset="1" stop-color="#4b49a5"/></linearGradient><linearGradient id="Áåçûìÿííûé_ãðàäèåíò_16" x1="346.49" y1="295.42" x2="346.49" y2="125.64" gradientUnits="userSpaceOnUse"><stop offset="0" stop-color="#000422"/><stop offset="0.32" stop-color="#020c29"/><stop offset="0.81" stop-color="#09203b"/><stop offset="0.99" stop-color="#0c2a44"/></linearGradient><linearGradient id="Áåçûìÿííûé_ãðàäèåíò_10" x1="32.49" y1="271.8" x2="32.49" y2="58.92" gradientUnits="userSpaceOnUse"><stop offset="0" stop-color="#090e3d"/><stop offset="0.31" stop-color="#0c1640"/><stop offset="0.78" stop-color="#152a4a"/><stop offset="0.99" stop-color="#1a364f"/></linearGradient><radialGradient id="Áåçûìÿííûé_ãðàäèåíò_550" cx="-1198.87" cy="172.08" r="27.39" gradientTransform="translate(3215.93 -357.25) scale(2.39 2.37)" gradientUnits="userSpaceOnUse"><stop offset="0" stop-color="#6a229d"/><stop offset="0.16" stop-color="#672199"/><stop offset="0.32" stop-color="#5f1e8c"/><stop offset="0.48" stop-color="#511a78"/><stop offset="0.64" stop-color="#3d145b"/><stop offset="0.81" stop-color="#240c36"/><stop offset="0.97" stop-color="#060209"/><stop offset="1"/></radialGradient><radialGradient id="Áåçûìÿííûé_ãðàäèåíò_558" cx="-1198.29" cy="171.03" r="23.37" gradientTransform="translate(3213.76 -357.51) scale(2.39 2.37)" gradientUnits="userSpaceOnUse"><stop offset="0" stop-color="#0037a4"/><stop offset="0.15" stop-color="#0036a0"/><stop offset="0.31" stop-color="#003294"/><stop offset="0.47" stop-color="#002b7f"/><stop offset="0.63" stop-color="#002163"/><stop offset="0.79" stop-color="#00153e"/><stop offset="0.95" stop-color="#000611"/><stop offset="1"/></radialGradient><radialGradient id="Áåçûìÿííûé_ãðàäèåíò_275" cx="-1204.52" cy="174.72" r="32.22" gradientTransform="translate(-67.44 -2839.46) rotate(-90) scale(2.39 2.37)" gradientUnits="userSpaceOnUse"><stop offset="0" stop-color="#0037a4"/><stop offset="1"/></radialGradient><radialGradient id="Áåçûìÿííûé_ãðàäèåíò_23" cx="-1266.56" cy="147.07" r="7.01" gradientTransform="translate(-148.77 -4847.9) rotate(-90) scale(3.98 2.93)" gradientUnits="userSpaceOnUse"><stop offset="0" stop-color="#ff3700"/><stop offset="0.06" stop-color="#ea3300"/><stop offset="0.33" stop-color="#982100"/><stop offset="0.57" stop-color="#571300"/><stop offset="0.76" stop-color="#280900"/><stop offset="0.91" stop-color="#0b0200"/><stop offset="1"/></radialGradient></defs><g class="cls-2"><g id="street"><g class="cls-3"><rect class="cls-4" x="-321.51" y="-58.9" width="1500" height="342.77"/><circle class="cls-5" cx="434.35" cy="65.52" r="0.79"/><path class="cls-6" d="M387.57,6.69a.79.79,0,1,1-.79-.79A.79.79,0,0,1,387.57,6.69Z"/><circle class="cls-7" cx="356.78" cy="57.03" r="0.79"/><path class="cls-8" d="M399.11,98.19a.79.79,0,1,1-.79-.79A.79.79,0,0,1,399.11,98.19Z"/><path class="cls-8" d="M409.41,1.16a.79.79,0,1,1-.79-.79A.79.79,0,0,1,409.41,1.16Z"/><circle class="cls-7" cx="311.15" cy="93.22" r="0.79"/><circle class="cls-7" cx="435.14" cy="36.84" r="0.79"/><circle class="cls-9" cx="374.26" cy="70.05" r="0.79"/><circle class="cls-9" cx="307.09" cy="39.97" r="0.79"/><circle class="cls-9" cx="449.26" cy="70.31" r="0.79"/><circle class="cls-10" cx="172.16" cy="138.05" r="0.79"/><circle class="cls-7" cx="122.64" cy="105.84" r="0.79"/><circle class="cls-7" cx="85.45" cy="87.91" r="0.79"/><path class="cls-6" d="M40,52a.79.79,0,1,1-1.57,0A.79.79,0,1,1,40,52Z"/><circle class="cls-5" cx="4.93" cy="170.55" r="0.79"/><circle class="cls-5" cx="134.66" cy="105.06" r="0.79"/><circle class="cls-7" cx="3.23" cy="84.64" r="0.79"/><circle class="cls-7" cx="9.2" cy="194.75" r="0.79"/><circle class="cls-7" cx="40.04" cy="23.29" r="0.79"/><circle class="cls-11" cx="99.77" cy="180.24" r="0.79"/><circle class="cls-9" cx="56.62" cy="182.82" r="0.79"/><circle class="cls-9" cx="162.13" cy="11.38" r="0.79"/><circle class="cls-9" cx="135.44" cy="56.5" r="0.79"/><circle class="cls-9" cx="56.71" cy="62.3" r="0.79"/><circle class="cls-9" cx="79.47" cy="193.97" r="0.79"/><path class="cls-12" d="M175.68,256.13l1.67-4.55-26-.5h0l21.71.41-21.37-9,.75-18.4v-.19h.27l.58-4,1.23-.75v-4.07l-1.72,0,2.89-71.19,17.29-.91h0l1.82-4.92-1.95-.09-71.09-30.55-94.64-11-79.84,44.43h0l1.54,3.55h11.7l3.2,72.93-3.38.3,1.31,5.34.91-.06.48,2.39,1,.35,3.77,86H161.2l5-52.86h1.41l1.81-2.23h0l.31-.38Zm-14.08,2.59H159l-2.11,47h-7.76L151,258.7h14Z"/><polygon class="cls-13" points="348.04 134.75 340.71 153.21 344.33 152.31 348.29 147.41 344.13 155.16 332.13 176.3 338.69 175.03 344.33 169.66 322.78 194.93 305.09 295.24 387.88 295.42 373.35 199.96 358.78 175.03 367.37 187.66 375.11 194.4 358.78 158.6 362.06 163.74 364.59 165.98 362.06 160.25 365.73 163.74 372.47 165.98 355.11 144.81 354.14 142 358.52 147.78 362.57 149.87 348.17 125.64 348.04 134.75"/><polygon class="cls-14" points="13.13 269.69 -7.47 215.51 -7.87 193.74 -9.19 174.56 -2.52 201.83 -9.19 160.9 -2.52 94.94 8.17 58.92 35.6 117.28 35.01 112.67 49.36 138.92 49.36 207.51 38.51 247.02 53.44 201.63 67.9 166.94 74.18 199.01 69.1 240.76 38.51 271.8 13.13 269.69"/><polygon class="cls-15" points="-2.52 94.94 -4.45 144.81 18.74 208.31 21.75 201.63 9.37 131.01 9.37 118.37 13.23 142.95 31.58 179.08 41.55 183.22 49.36 138.92 49.36 207.51 38.51 247.02 53.44 201.63 67.9 166.94 56.18 203.71 49.48 251.62 51.38 249.73 59.12 207.79 55.93 247.99 69.1 240.76 38.51 271.8 13.13 269.69 -7.47 215.51 -4.52 217.28 11.68 237.72 -2.52 201.83 -9.19 160.9 -2.52 94.94"/><polygon class="cls-16" points="348.29 147.41 332.13 176.3 338.69 175.03 344.33 169.66 322.78 194.93 311.56 260.27 341.03 187.41 348.29 162.66 348.29 171.87 358.58 179.4 358.78 175.03 350.75 149.64 355.11 144.81 354.14 142 348.04 134.75 340.71 153.21 344.33 152.31 348.29 147.41"/><polygon class="cls-17" points="32.99 141.1 35.01 112.67 32.99 102.86 38.12 118.37 32.99 141.1"/><polygon class="cls-17" points="4.14 104.77 -0.78 89.09 -0.78 73.65 4.14 104.77"/><polygon class="cls-17" points="45.13 150.24 43.71 144.71 45.89 139.18 45.13 150.24"/><polygon class="cls-17" points="69.1 179.08 73.39 161.91 72.69 146.54 69.1 179.08"/><polygon class="cls-18" points="-321.51 307.03 1178.78 307.03 1178.49 271.27 -321.51 263.96 -321.51 307.03"/><rect class="cls-19" x="-321.51" y="307.03" width="1500.29" height="2.46"/><polygon class="cls-20" points="1178.49 341.1 -321.51 341.1 -321.51 309.49 1178.78 309.49 1178.49 341.1"/><polygon class="cls-21" points="13.01 309.49 9.96 307.03 116.18 307.03 119.42 309.49 13.01 309.49"/><polygon class="cls-22" points="119.42 309.49 -2.37 296.04 -2.68 295.24 116.18 307.03 119.42 309.49"/><polygon class="cls-23" points="95.68 306.87 -2.37 296.04 -72.09 296.04 9.96 307.03 95.68 306.87"/><polygon class="cls-21" points="173.27 309.49 170.22 307.03 276.44 307.03 279.68 309.49 173.27 309.49"/><polygon class="cls-22" points="279.68 309.49 157.89 296.04 157.58 295.24 276.44 307.03 279.68 309.49"/><polygon class="cls-23" points="255.94 306.87 157.89 296.04 76.88 295.17 170.22 307.03 255.94 306.87"/><polygon class="cls-24" points="264.31 303.4 188.25 296.04 286.23 296.04 365.25 303.99 264.31 303.4"/><polygon class="cls-22" points="188.25 296.04 286.23 296.04 365.25 303.99 362.63 303.99 286.18 296.37 189.51 296.3 188.25 296.04"/><polygon class="cls-24" points="393.89 303.4 317.84 296.04 415.82 296.04 494.84 303.99 393.89 303.4"/><polygon class="cls-22" points="317.84 296.04 415.82 296.04 494.84 303.99 492.22 303.99 415.77 296.37 319.1 296.3 317.84 296.04"/><polygon class="cls-24" points="527.47 303.4 451.41 296.04 509.39 296.04 588.41 303.99 527.47 303.4"/><polygon class="cls-22" points="451.41 296.04 509.39 296.04 588.41 303.99 585.79 303.99 509.34 296.37 452.67 296.3 451.41 296.04"/><g class="cls-25"><path class="cls-26" d="M1304.53,301.68l11.22,1.71h0l.32,0H1316l14.67,2.24.32,0h-.08l14.67,2.24.33,0h-.08l37.18,5.66.32,0h-.08l9.77,1.49.33,0h-.08l16.52,2.5.34,0H1410l11.86,1.8c-43.31-.53-84.44-.73-127.41-.74l11.53,1.28h.12l2.66.11,7.39.72-21.69-.08-8.45-.38-4-.56.47-.05-9.3-1c-14.39,0-29,0-44.13.08L1113.31,307.8c-35.45-.18-58.9-.14-92.69.26l-62.15-5.31,9.14,5.58-7.75-.38L952,307.5h-.24L895.6,307l13.17,2.22.33,0H909l6,1,.34,0h-.13l14.38,2.42.34,0h-.13l3.8.63.35,0h-.13l3,.5-123.46,1.41-34.62-3,33.68,3.48L831,316l8.29.69h-1.83l-4.35.56.18,0h-.33l-7,.9.18,0h-.32l-2.89.37,30.63,3h.2l2.08.1,6.1.55-13.58.05-9.44-.46-3.17-.34.23-.08-19.29-2-2.9.37h-.14l-3,.38.17,0h-.32l-2,.25,29.9,5.83-17.63-.59h0l-14.32-.48-52.13-3.72-25.63.36h0l-3.17,0h0l-138.42-6.34h0l-3.1-.48,11.74,0-92.32-9.89-3.78,0-2.84-.36-2.84-.36h1l-2.65-.32.59,0-25.62-2.75-18.91,1.34,78.88,14.88L516,317l-8.71-.68L498.6,316l54.46,8.46-5.06-.25-8.87-.65-22.07-.68-.11,0-.31,0-58.93-1.78-7-.48h-.28l-.28,0-38.87-2.68H411l-.25,0L397.09,317h-.32l-.26,0-18.75-1.29h-.3l-.27,0-11.13-.76h-.23l-.3,0-14.34-1,1.76-.21,7,.13-52.66-5.42h0l-40.21-2.92-4.92,1.17L247.92,306l-32.55-.81.21,0-2.44-.08-26.63-.66-83.92-2.88-.8.12.34,0h-.6L86,303.88l.31,0h-.52l-6.62.9.33,0h-.56l-7,.94.33,0h-.58l-5.77.77,1.12.14.32,0h-.07l5,.63.32,0h-.07l33.23,4.23.33,0H106L116.47,313l.32,0h-.08l11.63,1.48.33,0h-.08l10.9,1.38c-16.76,0-32.76-.11-48.46-.18h0c-31.68-.13-62.15-.26-95.11-.24l26,2.31h.21l2.15.1,6.28.5-14.16,0-9.78-.43-3.26-.31.26-.07-22.17-2.12c-13.43,0-27.34.08-42,.17l-198.54-15.18h8l-83.74-8.32h51.23l108.94.18h88.39l1.5.14-1.54-.14H135.56l94.2,0H413.82l.59.06h183l.54,0H776.75L857,290.86l.19.5,10.2,1.1,2.3.24h336.43l85.18,8.94Zm-349.7,5.5h0l3.95.23Zm-238.59-5.26h0l86.86,12.37Zm-589.72-1.13h-.15l123.57,4.9h0l-11.65-.47h0l-101.31-4h-.36l-9.67-.4h-.43Zm-89-1.14,35.06,0h0Zm449.91,16h0l-3.4-.1h0Zm45.67,7.05h0l10.91.83Zm309.74-1.1h0l-24.32-2.47h0Z"/></g><ellipse class="cls-27" cx="345.68" cy="51.22" rx="65.57" ry="65.01" transform="translate(65.03 259.44) rotate(-45)"/><ellipse class="cls-28" cx="344.91" cy="48.47" rx="55.94" ry="55.46" transform="translate(66.75 258.08) rotate(-45)"/><path class="cls-29" d="M387.42,49a42.11,42.11,0,1,1-84.22,0,43,43,0,0,1,.24-4.57,42.11,42.11,0,0,1,84,4.57Z"/><g class="cls-30"><path class="cls-31" d="M334.67,77.47a10,10,0,0,0,1.79,3.06,5.56,5.56,0,0,0,3,1.58,4.4,4.4,0,0,0,1.83.46,9.56,9.56,0,0,1,2.07,0c1.33.3,2,1.48,3.54,1.56a9.17,9.17,0,0,0,3.57-.77c1.16-.35,2.51-.86,3.59-1.26s2.22-.76,3.44-1.15,2-1.29,3.61-.83c.1.6-.05,1.57.7,1.87.51.21,1.36-.33,1.91-.54,1.43-.55,2.72-.85,4.08-1.42a6.7,6.7,0,0,0,1.8-.75c.64-.48,1.33-.83,2-1.28,1.23-.82,2.44-1.72,3.67-2.55a19.44,19.44,0,0,0,7-10.09c.58-1.72.39-2.2-.76-3.61-2.06.86-2.88-.41-2.31-2.62a15.23,15.23,0,0,0,.28-6.52c-.07-.36-.35-.61-.41-1.12a8.86,8.86,0,0,0-.1-1.54,8.71,8.71,0,0,1-.39-2.55,12.48,12.48,0,0,0-.12-3.06,6.51,6.51,0,0,1-.41-1.53,7.75,7.75,0,0,0-.1-1.93c-.49-1.7-2.05-2.18-3.45-2.66-1-.34-1.44-.66-2.06,0s-.49,1.65-.49,2.55c0,1.71,1.08,3.21,2,4.59.42.62,1.16,1.22,1.05,2.06-.06.47-.63.54-.59,1s.65.73.95,1.13c2.44,3.18-2.15,6-4.33,7.66-1.25,1-3.12,1.46-3.6,3.05s.67,3.14,1.29,4.59,1.21,4.21.26,5.64a4.31,4.31,0,0,1-1.79,1.26,11.73,11.73,0,0,0-2,1.55,6.83,6.83,0,0,1-4.48,1.14,4.69,4.69,0,0,1-2.54-1A9,9,0,0,0,356,72a8.61,8.61,0,0,0-1.43-.11c-.72-.08-.86-.38-1.49-.54-1.08-.28-1.85.48-2.7.91a3.61,3.61,0,0,1-2.46.66c-.84-.21-1.82-.76-2.63-.93-1.95-.4-5.1-.54-6.66.78-.78.67-1.06,1.61-1.76,2.31S334.88,75.91,334.67,77.47Z"/><path class="cls-31" d="M373.44,33.09c-1.87,0-3.59-1.36-5.12-2.42a9.67,9.67,0,0,1-3.17-3.57c-.18-.41-.24-.74-.39-1.15,0-.09-.48-1.3-.48-1.33a3.78,3.78,0,0,1,1.12-2.11c1.52-1.57,3.85-.44,5.37.51a24.4,24.4,0,0,1,4.06,3.06,9.74,9.74,0,0,1,1.8,1.77,6.09,6.09,0,0,1,.38,3.2c0,1.73,2.23,3.71-.5,4.09-1.07.15-4.36-.75-4.6-2Z"/><path class="cls-31" d="M339.77,87.67c-.46.52-1,.16-1.54,0a4.18,4.18,0,0,0-1.52-.25,12.51,12.51,0,0,1-3.19-.26c-1-.25-2-.4-2.93-.64-.38-.09-.75-.31-1.14-.39s-.51,0-.75,0-.13-.16-.21-.18-.38,0-.58,0a23.64,23.64,0,0,1-2.73-.71,4.36,4.36,0,0,1-1.16-.37c-.39-.24-.93-.5-1.28-.76a35,35,0,0,1-4.14-3.14c-1.18-1.18-2.4-2.27-3.64-3.37-.28-.26-.52-.6-.82-.84a8.66,8.66,0,0,1-1-.7,14.61,14.61,0,0,1-1.65-2.11,35.28,35.28,0,0,1-3.1-4.23,24.08,24.08,0,0,0-1.18-2.25,12.42,12.42,0,0,1-.77-1.55c-.15-.38-.47-.83-.57-1.2-.16-.55-.16-1.07-.31-1.61-.06-.23-.22-.38-.27-.61s.08-.63,0-.92-.22-.37-.28-.61.09-.63,0-.92-.22-.37-.28-.61.1-.72,0-1.05-.22-.36-.27-.61a4,4,0,0,1,0-.91c0-.65-.23-1.16-.27-1.78a8.22,8.22,0,0,1,0-1.92c.06-.26.22-.38.28-.62s-.08-.67,0-1c.69-.18.47,1.28.47,1.63,0,.66.27,1,.25,1.66s.31.9.78,1.48a4.27,4.27,0,0,1,.76,1.06c.07.22.06.57.12.78a2.51,2.51,0,0,1,.13.76c0,.63-.05.94.44,1.34a3.83,3.83,0,0,0,1.33.72c.58.13,1.08.12,1.68.23.27,0,.36.22.61.28s.67-.13,1,0a2.3,2.3,0,0,1,.75,1,1.83,1.83,0,0,1-.19,1.47c-.09.17-.16.35-.26.51s-.35.37-.46.57c-.48.88.22,2.31.41,3.06.07.29.51,1.17.27,1.44s-1.69,0-2-.13c-.16.33.14.95.24,1.29a5.75,5.75,0,0,0,.54,1.36,5.61,5.61,0,0,0,2.08,1.88c.52.27.83.42.93-.28,0-.31,0-.49.11-.78s.32-.23.4-.49-.09-.63,0-.91.2-.34.25-.52c.14-.61-.1-1.29,0-1.9a2.55,2.55,0,0,1,2.18-2,17.75,17.75,0,0,0,3.17-1,5.05,5.05,0,0,1,3.58-.31,14.78,14.78,0,0,1,2.65,1.37,9.79,9.79,0,0,0,1.19.47,14.9,14.9,0,0,0,1.42.49,10.48,10.48,0,0,1,2.59.85,7.49,7.49,0,0,1,2.23,1.72,3.55,3.55,0,0,1,.62,2.92c-.28.64-1.24,1.2-1.71,1.74-.78.92-.57,1.53,0,2.48a5.63,5.63,0,0,1,.68,1.18,6.46,6.46,0,0,1,0,1.76,2.28,2.28,0,0,1-.45,1.22c-.24.38-.83.61-1,1s0,.52.13.78c0,.08.17.1.21.18s0,.35.11.52c.25.59.76.5,1.28.63a2.27,2.27,0,0,0,1.54-.12,2.78,2.78,0,0,1,.75-.26c.37-.06.55.14.83.2.62.13,1-.3,1.61-.33a1.47,1.47,0,0,1,1.2.58c.32.32.78.86.72,1.34S340.12,87.21,339.77,87.67Z"/><path class="cls-31" d="M334.93,68.54a4.39,4.39,0,0,1,.44-.21,6.47,6.47,0,0,0,1.34,1.23c.75.47,1.12.18,1.28-.62.09-.41-.13-.67-.2-1s0-.7-.37-.91-1.94-.15-1.73.71Z"/><path class="cls-31" d="M310.44,35.64a.41.41,0,0,1-.47.24,4.64,4.64,0,0,1,0-1.62c.05-.23.21-.35.24-.65s0-.47.05-.71.33-.82.4-1.14a5.39,5.39,0,0,1,.32-1.21c.18-.41.28-.95.47-1.42A6.83,6.83,0,0,1,312,28c.47-.77.86-1.52,1.33-2.3a15.49,15.49,0,0,1,3.08-3.82c.44-.37.94-.64,1.39-1,.16-.11.29-.29.44-.39s.39-.15.52-.24c.4-.29,1.55-1.46,2.07-1.18-.36.95-1,1.9-1.44,2.83s-1.51,1-2.29,1.78c-1.23,1.19.82,1.69,1.53,2.16s.7,1.11.7,1.86a5.8,5.8,0,0,0,.25,1.91,5.69,5.69,0,0,1,.27.89l0,.53a.36.36,0,0,0,.22.3,2.76,2.76,0,0,1-.39,1.78,4,4,0,0,1-.9,1.66c-.5.47-1.05.32-1.72.32a3.48,3.48,0,0,1-1-.19c-.25-.07-.62-.22-.82-.26s-.6,0-.91-.11-.33-.25-.76-.14-.86.61-1.32.72c-.64.14-1.37-.16-2,0C310.22,35.25,310.2,35.32,310.44,35.64Z"/></g><ellipse class="cls-32" cx="347.28" cy="44.27" rx="76.48" ry="77.13"/><polygon class="cls-33" points="376.25 117.92 383.76 295.01 438.82 295.01 441.85 110.14 376.25 117.92"/><polygon class="cls-34" points="584.79 295.01 592.07 115.68 439.18 110.46 438.82 295.01 584.79 295.01"/><polygon class="cls-35" points="363.19 124.23 443.04 79.8 537.67 90.82 608.89 121.42 441.87 113.12 363.19 124.23"/><polygon class="cls-36" points="598.85 117.23 442.1 106.35 442.12 106.1 598.86 116.98 598.85 117.23"/><polygon class="cls-36" points="582.64 110.27 442.4 102.14 442.42 101.89 582.65 110.02 582.64 110.27"/><polygon class="cls-36" points="554.94 98.37 442.11 96.14 442.11 95.89 554.95 98.12 554.94 98.37"/><polygon class="cls-36" points="547.92 95.35 442.7 89.16 442.72 88.91 547.94 95.1 547.92 95.35"/><rect class="cls-36" x="451.94" y="89.59" width="0.25" height="6.63"/><polygon class="cls-37" points="443.04 79.8 441.87 113.12 363.19 124.23 443.04 79.8"/><polygon class="cls-38" points="610.71 121.46 608.89 126.38 442.41 119.27 441.87 113.12 610.71 121.46"/><polygon class="cls-39" points="441.87 113.12 363.19 124.23 364.73 127.78 442.41 119.27 441.87 113.12"/><polygon class="cls-37" points="487.18 212.13 503.05 232.93 445.72 234.95 487.18 212.13"/><polygon class="cls-39" points="445.72 234.95 445.72 238.57 503.05 238.91 503.05 232.93 445.72 234.95"/><polygon class="cls-40" points="364.73 127.78 376.44 127.78 439.11 120.83 591.55 127.29 608.89 126.38 442.41 119.27 364.73 127.78"/><polygon class="cls-39" points="452.62 238.61 454.55 242.16 603.59 242.16 606.23 238.91 452.62 238.61"/><polygon class="cls-39" points="454.55 242.16 456.28 295.01 463.61 294.88 463.61 242.18 454.55 242.16"/><polygon class="cls-39" points="456.75 146 455.8 146.17 456.49 148.29 457.64 148.29 456.75 146"/><polygon class="cls-34" points="383.76 295.01 376.44 127.78 378.58 127.39 386.15 293.19 436.43 292.12 436.43 121.13 439.11 120.83 438.82 295.01 383.76 295.01"/><polygon class="cls-38" points="590.43 198.51 436.43 195.62 436.43 201.69 590.43 202.58 590.43 198.51"/><polygon class="cls-38" points="439.11 120.83 438.82 295.01 456.28 295.01 456.18 291.8 443.34 291.8 441.85 120.83 439.11 120.83"/><polygon class="cls-39" points="436.43 195.62 376.25 201.01 377.56 206.34 436.43 202.58 436.43 195.62"/><polygon class="cls-39" points="590.43 202.58 589.2 203.33 588.92 205.23 438.99 206.34 380.12 209.07 378.95 208.68 378.47 206.29 436.43 201.69 590.43 202.58"/><polygon class="cls-38" points="589.2 203.33 437.71 203.5 437.71 206.4 588.62 207.35 589.2 203.33"/><path class="cls-41" d="M562.1,242.18l-56.48-.53v-2.06l-2.57-.68v-6l-15.87-20.8L439.8,235l-.09,5.92,8,1.29,1.45,2.17V295h62.63l-.71-32.45-.05-2.28h0l-.4-18.11.4,18.11h0l.05,2.28,50.38-3.73Zm-53.36,18.44h0l.09,2.12,1.07,26.56-46.29,2.5V266.09l45.22-3.35-.09-2.12h0L508,242.18Z"/><polygon class="cls-41" points="486.81 107.5 446.75 80.23 476.83 83.73 494.16 57.28 504.31 54.15 486.81 94.86 488.01 95.65 486.81 107.5"/><polygon class="cls-41" points="442.41 119.27 441.87 113.12 443.04 79.8 363.19 124.23 364.73 127.78 376.44 127.78 379.76 200.7 376.25 201.01 377.56 206.34 378.47 206.29 378.95 208.68 380.12 209.07 383.76 295.01 438.82 295.01 438.99 206.34 437.71 206.4 437.71 203.5 436.43 201.69 436.43 195.62 439.01 195.62 439.1 129.51 591.43 130.72 591.55 127.29 608.89 126.38 442.41 119.27"/><polygon class="cls-41" points="588.35 207.35 588.31 208.3 438.99 209.07 438.99 206.34 588.35 207.35"/><polygon class="cls-42" points="446.75 113.36 448.02 106.64 481.17 108.94 482.99 115.15 446.75 113.36"/><polygon class="cls-39" points="266 121.15 259.51 121.71 234.68 66.85 237.55 60.71 266 121.15"/><polygon class="cls-43" points="-1.56 233.92 5.72 295.17 45.07 295.17 42.19 230.13 -1.56 233.92"/><polygon class="cls-44" points="346.49 218.37 420.64 241.86 353.51 227.12 346.49 218.37"/><polygon class="cls-45" points="224.49 223.06 230.02 295.42 414.08 295.42 420.64 241.86 353.51 227.12 281.3 114.2 224.49 223.06"/><polygon class="cls-43" points="123.42 228.48 135.49 295.17 230.02 295.42 224.49 223.06 123.42 228.48"/><polygon class="cls-46" points="222.57 238.05 281.3 114.2 162.21 147.5 114.07 244.02 222.57 238.05"/><rect class="cls-47" x="123.41" y="224.25" width="102.49" height="0.5" transform="translate(-3.48 2.75) rotate(-0.89)"/><rect class="cls-47" x="129.43" y="208.86" width="103.59" height="0.5" transform="translate(-5.62 5) rotate(-1.56)"/><rect class="cls-47" x="134.86" y="202.08" width="100.44" height="0.5"/><rect class="cls-47" x="139.04" y="189.01" width="104.25" height="0.5" transform="matrix(1, -0.08, 0.08, 1, -15.23, 16.73)"/><rect class="cls-47" x="143.94" y="179.15" width="103.78" height="0.5" transform="translate(-14.38 17.09) rotate(-4.82)"/><polygon class="cls-47" points="146.61 179.36 146.53 178.86 253.27 161.66 253.35 162.16 146.61 179.36"/><rect class="cls-47" x="158.06" y="154.92" width="99.59" height="0.5" transform="translate(-10.14 14.6) rotate(-3.93)"/><rect class="cls-47" x="176.63" y="141.75" width="86.85" height="0.5" transform="translate(-8.7 14.49) rotate(-3.7)"/><rect class="cls-47" x="183.69" y="134.5" width="83.87" height="0.5" transform="translate(-12.95 24.54) rotate(-6.05)"/><rect class="cls-47" x="210.46" y="194.15" width="18.52" height="0.5" transform="translate(-60.16 282.36) rotate(-58.95)"/><rect class="cls-47" x="187.76" y="216.16" width="17.75" height="0.5" transform="translate(-87.02 287.38) rotate(-61.79)"/><rect class="cls-47" x="239.64" y="157.78" width="12.87" height="0.5" transform="translate(-7.64 303.47) rotate(-62.53)"/><polygon class="cls-38" points="222.57 238.05 226.51 241.55 281.3 121.15 352.25 231.44 425.42 245.05 428.4 241.4 353.51 227.12 281.3 107.13 222.57 238.05"/><polygon class="cls-39" points="281.3 107.13 275.71 111.41 219.49 238.18 222.57 238.05 281.3 107.13"/><polygon class="cls-39" points="114.07 244.02 118.46 245.65 226.51 241.55 222.57 238.05 114.07 244.02"/><polygon class="cls-48" points="231.11 231.44 347.28 231.44 281.3 121.15 231.11 231.44"/><polygon class="cls-39" points="281.3 121.15 280.21 123.54 347.28 231.44 352.25 231.44 281.3 121.15"/><polygon class="cls-46" points="117.59 189.71 30.78 229.47 -10.63 231.31 65.06 201.99 117.59 189.71"/><polygon class="cls-38" points="120.83 186.85 30.78 229.47 33.98 233.92 120.83 191.51 198.55 233.92 204.4 232.35 120.83 186.85"/><polygon class="cls-39" points="-10.63 231.31 -5.03 233.92 33.98 233.92 30.78 229.47 -10.63 231.31"/><polygon class="cls-45" points="194.71 232.01 192.61 295.17 45.07 295.17 42.19 230.13 120.83 191.51 194.71 232.01"/><polygon class="cls-39" points="198.55 233.92 194.72 233.92 117 193.29 120.83 191.51 198.55 233.92"/><polygon class="cls-38" points="76.88 295.17 74.18 248.9 163.24 249.06 159.56 295.17 76.88 295.17"/><polygon class="cls-45" points="209.08 206.32 202.87 102.06 233.47 64.49 260.29 117.1 260.13 120.12 256.45 121.15 209.08 206.32"/><polygon class="cls-43" points="209.08 206.32 149.84 202.65 147.81 130.76 204.75 121.15 209.08 206.32"/><polygon class="cls-46" points="138.03 131.8 207.77 124.43 237.55 58.92 173 77.08 138.03 131.8"/><polygon class="cls-38" points="264.89 118.79 267.13 118.16 237.55 53.75 202.87 121.71 207.77 124.43 237.55 60.71 264.89 118.79"/><polygon class="cls-39" points="138.03 131.8 141.97 133.48 207.77 124.43 202.52 120.86 138.03 131.8"/><polygon class="cls-43" points="163.24 249.06 160.06 249.06 157.77 295.17 159.56 295.17 163.24 249.06"/><polygon class="cls-38" points="103.05 212.24 104.27 223.57 136.61 223.72 137.67 211.86 103.05 212.24"/><polygon class="cls-39" points="103.05 212.24 102.55 213.72 103.63 223.57 104.27 223.57 103.05 212.24"/><polygon class="cls-49" points="105.5 222.69 104.9 213.98 136.16 213.36 135.54 222.69 105.5 222.69"/><polygon class="cls-39" points="136.16 213.36 135.32 213.38 135.04 222.69 135.54 222.69 136.16 213.36"/><polygon class="cls-49" points="76.06 251.62 100.96 251.62 100.96 257.14 76.96 257.14 76.06 251.62"/><rect class="cls-50" x="104.55" y="251.62" width="24.9" height="5.52"/><rect class="cls-50" x="133.28" y="251.62" width="24.9" height="5.52"/><rect class="cls-51" x="74.9" y="260.67" width="84.61" height="0.25" transform="translate(-3.02 1.38) rotate(-0.66)"/><rect class="cls-51" x="74.9" y="263.87" width="84.42" height="0.25"/><rect class="cls-51" x="75.43" y="270.13" width="83.58" height="0.25"/><rect class="cls-51" x="117.08" y="233.41" width="0.25" height="83.09" transform="translate(-159.62 387.68) rotate(-89.07)"/><rect class="cls-51" x="76.02" y="280.27" width="82.49" height="0.25"/><rect class="cls-51" x="76.21" y="283.56" width="81.97" height="0.25"/><rect class="cls-51" x="117.07" y="250.78" width="0.25" height="81.18" transform="translate(-176.46 402.69) rotate(-88.85)"/><polygon class="cls-41" points="157.77 295.17 160.06 249.06 74.18 248.9 74.18 252.66 155.49 254.38 155.49 295.17 157.77 295.17"/><polygon class="cls-51" points="342.66 223.84 235.31 222.34 235.31 222.09 342.66 223.59 342.66 223.84"/><rect class="cls-51" x="239.63" y="212.59" width="96.45" height="0.25"/><rect class="cls-51" x="242.54" y="206.2" width="89.13" height="0.25"/><rect class="cls-51" x="246.11" y="194.81" width="76.6" height="0.25" transform="translate(-15.65 25.08) rotate(-4.91)"/><polygon class="cls-51" points="319.56 186.98 252.16 185.3 252.17 185.05 319.57 186.73 319.56 186.98"/><rect class="cls-51" x="256.28" y="174.91" width="55.3" height="0.25" transform="translate(-6.64 11.26) rotate(-2.24)"/><rect class="cls-51" x="260.29" y="167.17" width="47.11" height="0.25"/><polygon class="cls-51" points="263.4 160.63 263.38 160.38 302 158.48 302.02 158.73 263.4 160.63"/><rect class="cls-51" x="269.35" y="147.28" width="25.7" height="0.25"/><rect class="cls-51" x="274.8" y="134.89" width="12.32" height="0.25" transform="translate(-7.89 17.83) rotate(-3.58)"/><polygon class="cls-51" points="301.89 206.34 299.9 193.62 300.15 193.58 302.13 206.3 301.89 206.34"/><rect class="cls-51" x="277.24" y="167.31" width="0.25" height="7.72"/><polygon class="cls-51" points="293.5 159.06 289.08 147.45 289.31 147.36 293.74 158.97 293.5 159.06"/><polygon class="cls-38" points="243.11 281.55 240.75 246.84 263.59 246.84 263.59 281.55 243.11 281.55"/><polygon class="cls-49" points="244.16 280.41 242.57 248.9 262.35 247.99 262.35 279.9 244.16 280.41"/><polygon class="cls-39" points="262.35 247.99 261.01 247.99 261.01 279.94 262.35 279.9 262.35 247.99"/><polygon class="cls-52" points="253.51 248.4 252.46 279.94 261.01 279.94 261.01 247.99 253.51 248.4"/><polygon class="cls-39" points="240.75 246.84 239.74 247.99 242.57 281.55 243.11 281.55 240.75 246.84"/><rect class="cls-53" x="242.92" y="254.76" width="18.09" height="2"/><rect class="cls-53" x="247.29" y="248.67" width="0.5" height="7.09"/><rect class="cls-53" x="257.28" y="247.99" width="0.5" height="7.77"/><polygon class="cls-40" points="185.64 182.53 187.25 147.78 164.46 150.64 165.18 183.76 185.64 182.53"/><polygon class="cls-49" points="184.56 181.42 185.47 149.87 165.72 151.75 166.38 182.09 184.56 181.42"/><polygon class="cls-39" points="165.72 151.75 167.06 151.73 167.72 182.1 166.38 182.09 165.72 151.75"/><polygon class="cls-39" points="187.25 147.78 188.28 148.9 186.18 182.52 185.64 182.53 187.25 147.78"/><rect class="cls-54" x="165.84" y="156.96" width="19.46" height="1" transform="translate(-11.19 13.45) rotate(-4.25)"/><rect class="cls-54" x="180.07" y="149.75" width="1" height="7.09" transform="translate(-3.29 3.97) rotate(-1.25)"/><rect class="cls-54" x="170.09" y="151" width="1" height="6.06" transform="translate(-3.31 3.75) rotate(-1.25)"/><polygon class="cls-38" points="321.67 281.56 320.89 246.85 343.73 246.85 342.15 281.56 321.67 281.56"/><polygon class="cls-49" points="322.73 280.42 322.71 248.9 342.49 247.99 340.92 279.9 322.73 280.42"/><polygon class="cls-39" points="342.49 247.99 341.15 247.99 339.58 279.94 340.92 279.9 342.49 247.99"/><polygon class="cls-39" points="320.89 246.85 319.88 247.99 321.14 281.56 321.67 281.56 320.89 246.85"/><rect class="cls-53" x="323.06" y="254.76" width="18.09" height="2"/><rect class="cls-53" x="327.43" y="248.67" width="0.5" height="7.09"/><rect class="cls-53" x="337.42" y="247.99" width="0.5" height="7.77"/><polygon class="cls-38" points="363.29 281.56 363.55 237.15 409.47 246.85 407.9 281.56 363.29 281.56"/><polygon class="cls-49" points="364.34 280.42 365.37 239.21 408.24 247.99 406.67 279.91 364.34 280.42"/><polygon class="cls-39" points="408.24 247.99 406.9 247.99 405.45 279.91 406.67 279.91 408.24 247.99"/><polygon class="cls-52" points="388.84 244.02 392.12 279.91 405.45 279.91 406.9 247.99 388.84 244.02"/><polygon class="cls-39" points="363.55 237.15 362.54 238.3 362.75 281.56 363.29 281.56 363.55 237.15"/><rect class="cls-53" x="381.88" y="242.64" width="0.5" height="13.12"/><rect class="cls-53" x="371.95" y="240.22" width="0.5" height="15.54"/><rect class="cls-53" x="391.87" y="244.69" width="0.5" height="11.07"/><rect class="cls-53" x="401.62" y="246.69" width="0.5" height="9.07"/><polygon class="cls-52" points="368.64 239.88 368.64 280.42 364.34 280.42 365.37 239.21 368.64 239.88"/><rect class="cls-53" x="364.96" y="254.76" width="41.94" height="2"/><polygon class="cls-43" points="269.35 243.34 272.29 295.42 307.4 295.42 307.63 243.97 269.35 243.34"/><polygon class="cls-48" points="297.1 295.42 297.1 249.64 270.6 248.9 272.4 295.42 297.1 295.42"/><rect class="cls-51" x="284.28" y="249.28" width="0.25" height="45.88"/><ellipse class="cls-50" cx="284.71" cy="273.88" rx="4.49" ry="13.08"/><polygon class="cls-41" points="297.1 266.68 271.14 274.96 270.6 248.9 297.1 249.64 297.1 266.68"/><polygon class="cls-44" points="269.35 240.22 280.96 255.76 325.48 255.76 307.4 241.49 269.35 240.22"/><polygon class="cls-38" points="325.48 255.76 323.59 259.24 281.3 259.24 280.96 255.76 325.48 255.76"/><polygon class="cls-39" points="269.35 240.22 269.58 245.05 281.3 259.24 280.96 255.76 269.35 240.22"/><polygon class="cls-39" points="272.27 292.18 277.36 292.18 277.36 295.42 272.4 295.42 272.27 292.18"/><rect class="cls-53" x="277.36" y="292.18" width="40.17" height="3.24"/><polygon class="cls-38" points="315.24 259.24 315.24 292.18 317.53 292.18 318.67 259.24 315.24 259.24"/><polygon class="cls-38" points="282.58 259.24 283.43 292.18 284.7 292.18 285.64 259.24 282.58 259.24"/><polygon class="cls-38" points="270.14 218.37 268.24 169.66 295.05 169.66 294.17 218.37 270.14 218.37"/><polygon class="cls-39" points="268.24 169.66 267.33 171.17 269.54 218.37 270.14 218.37 268.24 169.66"/><polygon class="cls-55" points="271.28 216.38 292.89 216.38 293.74 171.17 270.14 171.17 271.28 216.38"/><polygon class="cls-56" points="293.74 171.17 292.67 171.17 292.02 216.38 292.89 216.38 293.74 171.17"/><polygon class="cls-57" points="277.36 171.17 275.33 216.38 271.28 216.38 270.14 171.17 277.36 171.17"/><rect class="cls-58" x="282.89" y="171.17" width="0.5" height="45.21"/><rect class="cls-58" x="283.21" y="191.26" width="9.17" height="0.5"/><polygon class="cls-38" points="260.29 115.04 212.54 114.2 210.07 119.49 261.67 118.44 260.29 115.04"/><polygon class="cls-39" points="261.67 118.44 260.29 119.49 209.43 120.86 210.07 119.49 261.67 118.44"/><polygon class="cls-38" points="42.19 230.13 192.44 231.31 188.54 229.21 47.93 227.12 42.19 230.13"/><polygon class="cls-39" points="192.44 231.31 190.15 231.53 40.58 230.7 41.76 230.13 192.44 231.31"/><rect class="cls-47" x="145.88" y="111.58" width="63.89" height="0.5" transform="translate(-19.29 39.22) rotate(-11.94)"/><rect class="cls-47" x="152.07" y="100.97" width="63.71" height="0.5" transform="translate(-18.27 44.73) rotate(-13.22)"/><rect class="cls-47" x="156.55" y="92.93" width="63.97" height="0.5" transform="translate(-17.39 50.46) rotate(-14.58)"/><rect class="cls-47" x="170.11" y="75.83" width="57.02" height="0.5" transform="translate(-10.04 34.87) rotate(-9.79)"/><rect class="cls-47" x="209.75" y="69.03" width="9.43" height="0.5" transform="translate(69.42 241.78) rotate(-67.84)"/><rect class="cls-47" x="169.65" y="87.14" width="23.04" height="0.5" transform="translate(5.56 185.47) rotate(-54.94)"/><polygon class="cls-47" points="173.12 112.99 172.68 112.75 178.22 102.39 178.66 102.63 173.12 112.99"/><rect class="cls-47" x="142.53" y="120.57" width="60.56" height="0.5" transform="translate(-13.18 21.47) rotate(-6.85)"/><polygon class="cls-39" points="237.55 53.75 234.84 55.54 200.82 121.15 202.87 121.71 237.55 53.75"/><polygon class="cls-59" points="204.4 224.05 211.85 208.28 228.25 207.84 219.71 223.81 204.4 224.05"/><polygon class="cls-59" points="243.11 184.92 225.28 186.41 216.32 202.33 235.31 202.33 243.11 184.92"/><polygon class="cls-59" points="180.49 111.27 184.49 101.09 212.69 94.46 204.96 106.09 180.49 111.27"/><polygon class="cls-60" points="187.11 78.07 175.67 96.52 213.95 86.59 221.85 72.06 187.11 78.07"/><polygon class="cls-41" points="420.37 244.11 419.62 250.22 343.73 234.95 272.27 140.99 281.3 121.15 352.25 231.44 420.37 244.11"/><polygon class="cls-41" points="264.89 118.79 237.55 60.71 230.68 75.41 251.12 114.88 255.22 114.96 257.01 118.53 210.07 119.49 209.43 120.86 207.77 124.43 204.92 124.43 205.22 130.31 237.4 126.48 208.18 188.54 209.08 206.32 256.45 121.15 260.13 120.12 260.13 120.12 264.89 118.79"/><polygon class="cls-41" points="194.72 233.92 194.5 238.18 183.92 233.92 42.35 233.92 42.19 230.71 178.44 231.47 178.95 231.04 178.75 229.07 175.17 229.01 110.02 196.82 120.83 191.51 198.55 233.92 194.72 233.92"/><polygon class="cls-41" points="209.08 206.32 176.72 217.28 149.84 202.65 137.67 196.02 149.03 173.93 150.06 202.15 209.08 206.32"/><polygon class="cls-47" points="24.54 228.83 24.33 228.38 41.44 220.29 41.66 220.74 24.54 228.83"/><rect class="cls-47" x="-3.01" y="213.58" width="93.36" height="0.5" transform="translate(-74.84 30.57) rotate(-21.35)"/><rect class="cls-47" x="21.71" y="220.76" width="27.82" height="0.5" transform="translate(-18.02 3.67) rotate(-4.71)"/><polygon class="cls-61" points="-102.25 173 31.58 233.65 -80.78 231.84 -102.25 173"/><polygon class="cls-38" points="35.62 233.65 33.44 239.13 -83.35 237.72 -83.69 231.8 35.62 233.65"/><polygon class="cls-62" points="26.61 239.05 16.04 295.24 -86.76 294.89 -82.95 237.72 26.61 239.05"/><polygon class="cls-38" points="26.61 239.05 16.04 295.24 -86.76 294.89 -86.56 292.21 14.02 293.26 23.5 239.13 26.61 239.05"/><polygon class="cls-63" points="22.13 247.06 -82.95 242.43 -82.94 242.18 22.14 246.81 22.13 247.06"/><rect class="cls-63" x="-83.69" y="253.79" width="104.6" height="0.25"/><rect class="cls-63" x="-32.52" y="209.57" width="0.25" height="103.83" transform="translate(-293.64 227.17) rotate(-89.58)"/><rect class="cls-63" x="-84.69" y="266.61" width="103.43" height="0.25" transform="translate(-2.13 -0.26) rotate(-0.46)"/><polygon class="cls-63" points="-85.4 276.24 -85.4 275.99 17.05 275.87 17.05 276.12 -85.4 276.24"/><rect class="cls-63" x="-85.91" y="285.3" width="101.31" height="0.25"/><polygon class="cls-63" points="-86.76 291.21 -86.77 290.96 14.79 288.74 14.79 288.99 -86.76 291.21"/><rect class="cls-63" x="3.28" y="257.77" width="8.13" height="0.25" transform="translate(-246.68 212.76) rotate(-78.3)"/><rect class="cls-64" x="-81.89" y="228.56" width="102.8" height="0.5"/><rect class="cls-64" x="-39.51" y="173.18" width="0.5" height="93.47" transform="translate(-256.46 167.71) rotate(-86.6)"/><polygon class="cls-41" points="25.12 246.94 -84.31 255.8 -82.95 237.72 26.61 239.05 25.12 246.94"/><polygon class="cls-65" points="-11.72 228.81 -17.42 221.21 0.4 222.27 6.51 228.81 -11.72 228.81"/><polygon class="cls-38" points="-74.88 294.94 -72.98 250.03 4.78 250.28 -1.01 295.17 -74.88 294.94"/><polygon class="cls-38" points="-2.68 295.24 1.34 252.34 -71.2 252.34 -72.96 294.81 -2.68 295.24"/><rect class="cls-51" x="-71.42" y="257.6" width="72.26" height="0.25"/><polygon class="cls-51" points="-71.65 263.27 -71.65 263.02 0.38 262.56 0.38 262.81 -71.65 263.27"/><polygon class="cls-39" points="1.34 252.34 0 252.34 -3.98 295.24 -2.68 295.24 1.34 252.34"/><polygon class="cls-41" points="-2.68 295.24 1.34 252.34 -71.2 252.34 -71.2 254.31 -3.1 254.93 -5.11 295.24 -2.68 295.24"/><ellipse class="cls-66" cx="281.62" cy="193.78" rx="20.51" ry="27.9"/><polygon class="cls-67" points="413.4 305.52 413.35 136.65 416.06 136.81 415.44 182.12 417.22 305.75 413.4 305.52"/><polygon class="cls-22" points="413.4 305.52 412.24 305.3 411.29 137.64 413.35 136.65 413.4 305.52"/><polygon class="cls-22" points="414.39 142.3 414.16 146.19 428.15 139.92 428.44 135.03 414.39 142.3"/><rect class="cls-68" x="427.69" y="135.73" width="4.9" height="3.7" transform="translate(267.79 559) rotate(-86.67)"/><polygon class="cls-22" points="431.85 140.14 416.89 145.69 414.16 146.19 428.15 139.92 431.85 140.14"/><polygon class="cls-22" points="411.32 143.48 405.08 147.22 404.97 148.98 407.06 149.1 411.35 147.59 411.32 143.48"/><polygon class="cls-22" points="418.9 139.96 419.11 136.29 421.1 135.89 421.81 138.46 418.9 139.96"/><polygon class="cls-22" points="425.76 136.41 426.18 132.6 429.14 132.11 430.28 135.13 428.44 135.03 425.76 136.41"/><polygon class="cls-22" points="411.32 143.48 410.28 142.13 409.44 142.37 409.08 144.82 411.32 143.48"/><polygon class="cls-22" points="406.86 146.16 406.35 145.11 405.64 145.58 405.56 146.93 406.86 146.16"/><polygon class="cls-69" points="413.38 256.39 416.88 256.59 417.22 305.75 413.4 305.52 413.38 256.39"/><polygon class="cls-70" points="411.97 256.98 413.38 256.39 413.4 305.52 410.55 304.98 411.97 256.98"/><path class="cls-19" d="M671.6,150.79c-29.36,0-60.16-.93-92.08-2.76-86.22-5-151.8-15.06-153.34-15.3-41.23,8.7-90.12,14.06-145.3,15.91-44.16,1.48-92.42.74-143.46-2.21-86.16-5-151.44-14.66-153.17-14.92-.85.29-19.67,6.45-65.63,10.3-27.5,2.31-59.19,3.35-94.2,3.07-43.77-.32-92.87-2.69-145.94-7l0-.25c120.16,9.83,196.88,7.58,240.08,4,46.81-3.91,65.44-10.24,65.62-10.3h.06c.65.1,66.3,9.91,153.18,14.93,80.18,4.63,195.36,6,288.71-13.7h.05c.65.1,66.53,10.3,153.34,15.3,80.11,4.61,195,5.61,287.07-15.8h0c.5,0,50.11,1.59,113.05,1.07,58.09-.48,139.73-2.89,198.78-11.66l0,.25c-59.07,8.77-140.72,11.18-198.82,11.66-62.54.51-111.91-1-113-1.07C826,141.69,777.49,147.6,722.58,149.8Q697.94,150.79,671.6,150.79Z"/><path class="cls-19" d="M250.56,151.62c-28.44,0-59.37-.73-92.48-2.19-92-4.05-169.9-12.44-170.68-12.52l0-.25c.77.09,78.7,8.47,170.66,12.52,84.87,3.74,199.39,4.45,263-13.41l.07.24c-28.09,7.9-68.38,12.85-119.73,14.74C285.5,151.33,268.52,151.62,250.56,151.62Z"/><path class="cls-19" d="M254.08,148.53c-33.81,0-68-.44-98.7-1-93.13-1.8-174.48-5.33-175.29-5.37v-.25c.81,0,82.16,3.57,175.29,5.37,86,1.67,199.79,2.15,254-5l0,.25C374.56,147.09,315,148.53,254.08,148.53Z"/><path class="cls-19" d="M622.1,154.17q-13.83,0-27.64-.23a1589.8,1589.8,0,0,1-170.62-12l0-.25c125.7,15.79,237.2,13.34,308.6,8.49,77.36-5.25,125.61-14.35,126.09-14.44l0,.25c-.48.09-48.75,9.19-126.12,14.44C696.12,152.93,659.1,154.17,622.1,154.17Z"/><path class="cls-19" d="M659.26,153.84c-29.65,0-60.62-.58-92.55-1.72-83.14-3-144.81-8.88-145.42-8.94l0-.25c.61.06,62.28,6,145.41,8.94,76.72,2.75,187.95,3.51,282.09-8.52l0,.25c-41.58,5.31-89.93,8.59-143.71,9.75Q682.81,153.85,659.26,153.84Z"/><path class="cls-19" d="M583.62,157.33q-20.83,0-40.21-.37c-52.81-1-97.25-4.13-132.08-9.25l0-.25c78.86,11.6,192.38,10.59,273.73,7.71,88.15-3.13,158.54-9.08,159.24-9.14l0,.25c-.71.06-71.11,6-159.26,9.14C649.16,156.69,615.17,157.33,583.62,157.33Z"/></g></g></g></svg>